<svg xmlns="http://www.w3.org/2000/svg" viewBox="0 0 400 600" width="400" height="600" role="img" aria-label="1-099 미자가 은주 쪽은 보지 않고 땅바닥에 대고 말한다."><rect width="400" height="600" fill="#ECEEF1"/><path d="M203.2 600.0 Q212.0 463.6 300.0 454.8 Q388.0 463.6 396.8 600.0Z" fill="#B9C3CF" stroke="#1C1F26" stroke-width="2"/><circle cx="300.0" cy="406.4" r="44.0" fill="#F6D5BB" stroke="#1C1F26" stroke-width="3.1"/><path d="M256.0 404.2 A44.0 44.0 0 0 1 344.0 404.2 Q308.8 369.0 256.0 404.2Z" fill="#555" stroke="#1C1F26" stroke-width="3.1"/><circle cx="284.6" cy="408.6" r="4.0" fill="#1C1F26"/><circle cx="315.4" cy="408.6" r="4.0" fill="#1C1F26"/><path d="M291.2 428.4 h17.6" stroke="#1C1F26" stroke-width="3.1"/><path d="M3.2 600.0 Q12.0 463.6 100.0 454.8 Q188.0 463.6 196.8 600.0Z" fill="#B9C3CF" stroke="#1C1F26" stroke-width="2"/><circle cx="100.0" cy="406.4" r="44.0" fill="#F6D5BB" stroke="#1C1F26" stroke-width="3.1"/><path d="M56.0 404.2 A44.0 44.0 0 0 1 144.0 404.2 Q108.8 369.0 56.0 404.2Z" fill="#555" stroke="#1C1F26" stroke-width="3.1"/><circle cx="84.6" cy="408.6" r="4.0" fill="#1C1F26"/><circle cx="115.4" cy="408.6" r="4.0" fill="#1C1F26"/><path d="M91.2 428.4 h17.6" stroke="#1C1F26" stroke-width="3.1"/><rect x="16" y="14" width="178" height="38" rx="18" fill="#fff" stroke="#1C1F26" stroke-width="2"/><text x="105" y="38" font-size="13" fill="#1C1F26" text-anchor="middle" font-family="sans-serif">미자</text><rect x="206" y="60" width="178" height="38" rx="18" fill="#fff" stroke="#1C1F26" stroke-width="2"/><text x="295" y="84" font-size="13" fill="#1C1F26" text-anchor="middle" font-family="sans-serif">은주</text><rect x="0" y="0" width="150" height="22" fill="#000" fill-opacity=".55"/><text x="6" y="16" font-size="13" fill="#fff" font-family="sans-serif">1-099 · MS · 아이레벨</text></svg>