<svg xmlns="http://www.w3.org/2000/svg" viewBox="0 0 1400 815" width="1400" height="815" font-family="'Noto Sans KR','Apple SD Gothic Neo','Malgun Gothic',sans-serif"><rect width="1400" height="815" fill="#FBFAF7"/><rect x="0" y="0" width="1400" height="92" fill="#1C1F26"/><text x="36" y="56" font-size="34" font-weight="700" fill="#fff">차미란  ·  35세</text><rect x="1210" y="28" width="150" height="38" rx="19" fill="#3FAE6A"/><text x="1285" y="54" font-size="18" fill="#fff" text-anchor="middle" font-weight="700">성인</text><text x="36" y="82" font-size="14" fill="#C9CED6">턴어라운드 러프 — 비율·실루엣·특징 위치 확인용 (완성 작화 아님)</text><line x1="30" y1="140" x2="950" y2="140" stroke="#D5D9DF" stroke-dasharray="3 5"/><text x="28" y="167" font-size="11" fill="#9AA1AC" text-anchor="end">1</text><line x1="30" y1="186" x2="950" y2="186" stroke="#D5D9DF" stroke-dasharray="3 5"/><text x="28" y="213" font-size="11" fill="#9AA1AC" text-anchor="end">2</text><line x1="30" y1="232" x2="950" y2="232" stroke="#D5D9DF" stroke-dasharray="3 5"/><text x="28" y="259" font-size="11" fill="#9AA1AC" text-anchor="end">3</text><line x1="30" y1="278" x2="950" y2="278" stroke="#D5D9DF" stroke-dasharray="3 5"/><text x="28" y="305" font-size="11" fill="#9AA1AC" text-anchor="end">4</text><line x1="30" y1="324" x2="950" y2="324" stroke="#D5D9DF" stroke-dasharray="3 5"/><text x="28" y="351" font-size="11" fill="#9AA1AC" text-anchor="end">5</text><line x1="30" y1="370" x2="950" y2="370" stroke="#D5D9DF" stroke-dasharray="3 5"/><text x="28" y="397" font-size="11" fill="#9AA1AC" text-anchor="end">6</text><line x1="30" y1="416" x2="950" y2="416" stroke="#D5D9DF" stroke-dasharray="3 5"/><text x="28" y="443" font-size="11" fill="#9AA1AC" text-anchor="end">7</text><line x1="30" y1="462" x2="950" y2="462" stroke="#D5D9DF" stroke-dasharray="3 5"/><text x="28" y="489" font-size="11" fill="#9AA1AC" text-anchor="end">8</text><path d="M126.6,296.4 L128.6,479.5 L141.2,479.5 L143.2,296.4 Z" fill="#F2CDB0" stroke="#1C1F26" stroke-width="2" stroke-linejoin="round"/><path d="M127.9,478.6 L127.4,485.0 L144.6,485.0 Q144.6,479.5 141.5,478.6 Z" fill="#2B2F3A" stroke="#1C1F26" stroke-width="2" stroke-linejoin="round"/><path d="M146.8,296.4 L148.8,479.5 L161.4,479.5 L163.4,296.4 Z" fill="#F2CDB0" stroke="#1C1F26" stroke-width="2" stroke-linejoin="round"/><path d="M148.2,478.6 L147.7,485.0 L164.9,485.0 Q164.9,479.5 161.7,478.6 Z" fill="#2B2F3A" stroke="#1C1F26" stroke-width="2" stroke-linejoin="round"/><path d="M110.5,201.2 Q145.0,192.0 179.5,201.2 C180.2,234.3 167.5,238.9 167.5,257.3 Q183.5,279.1 180.7,301.0 L109.3,301.0 Q106.5,279.1 122.5,257.3 C122.5,238.9 109.8,234.3 110.5,201.2 Z" fill="#6E1A2A" stroke="#1C1F26" stroke-width="2" stroke-linejoin="round"/><path d="M134.9,195.7 L145.0,213.6 L155.1,195.7" fill="#F2CDB0" stroke="#1C1F26" stroke-width="2" stroke-linejoin="round"/><path d="M122.5,257.3 L167.5,257.3" stroke="#47101B" stroke-width="1.4" stroke-dasharray="4 3"/><path d="M122.5,257.3 Q107.6,279.1 109.3,301.0 L105.1,451.9 L184.9,451.9 L180.7,301.0 Q182.4,279.1 167.5,257.3 Z" fill="#6E1A2A" stroke="#1C1F26" stroke-width="2" stroke-linejoin="round"/><path d="M109.1,199.8 L101.5,312.5 L109.7,312.5 L118.7,199.8 Z" fill="#6E1A2A" stroke="#1C1F26" stroke-width="2" stroke-linejoin="round"/><ellipse cx="105.6" cy="318.5" rx="4.6" ry="7.8" fill="#F2CDB0" stroke="#1C1F26" stroke-width="2" stroke-linejoin="round"/><path d="M171.3,199.8 L180.3,312.5 L188.5,312.5 L180.9,199.8 Z" fill="#6E1A2A" stroke="#1C1F26" stroke-width="2" stroke-linejoin="round"/><ellipse cx="184.4" cy="318.5" rx="4.6" ry="7.8" fill="#F2CDB0" stroke="#1C1F26" stroke-width="2" stroke-linejoin="round"/><rect x="139.0" y="180.5" width="12.0" height="17.9" fill="#F2CDB0" stroke="#1C1F26" stroke-width="2" stroke-linejoin="round"/><path d="M124.4,156.1 L123.3,215.9 L166.7,215.9 L165.6,156.1 Z" fill="#4A2418" stroke="#1C1F26" stroke-width="1.6" stroke-linejoin="round"/><ellipse cx="145.0" cy="163.0" rx="18.4" ry="23.0" fill="#F2CDB0" stroke="#1C1F26" stroke-width="2" stroke-linejoin="round"/><ellipse cx="138.0" cy="164.2" rx="1.7" ry="2.3" fill="#1C1F26"/><path d="M134.8,159.3 L141.2,159.3" stroke="#1C1F26" stroke-width="2.08" stroke-linecap="round"/><ellipse cx="152.0" cy="164.2" rx="1.7" ry="2.3" fill="#1C1F26"/><path d="M148.8,159.3 L155.2,159.3" stroke="#1C1F26" stroke-width="2.08" stroke-linecap="round"/><path d="M145.0,168.8 l-1.1,2.8" stroke="#1C1F26" stroke-width="1.2800000000000002" fill="none"/><path d="M140.6,175.7 L149.4,175.7" stroke="#1C1F26" stroke-width="1.6"/><path d="M125.5,161.8 C124.4,134.2 165.6,134.2 164.5,161.8 L163.4,157.2 Q145.9,152.7 138.6,147.4 Q134.0,156.1 126.6,159.6 Z" fill="#4A2418" stroke="#1C1F26" stroke-width="1.6" stroke-linejoin="round"/><path d="M125.5,158.4 Q122.9,172.2 124.4,199.8" fill="none" stroke="#1C1F26" stroke-width="1.4"/><path d="M164.5,158.4 Q167.1,172.2 165.6,199.8" fill="none" stroke="#1C1F26" stroke-width="1.4"/><circle cx="127.0" cy="171.7" r="2.3" fill="#E3BB38" stroke="#1C1F26" stroke-width="1"/><text x="145" y="519" font-size="16" fill="#1C1F26" text-anchor="middle" font-weight="700">정면</text><path d="M356.6,296.4 L358.6,479.5 L371.2,479.5 L373.2,296.4 Z" fill="#F2CDB0" stroke="#1C1F26" stroke-width="2" stroke-linejoin="round"/><path d="M357.9,478.6 L357.4,485.0 L374.6,485.0 Q374.6,479.5 371.5,478.6 Z" fill="#2B2F3A" stroke="#1C1F26" stroke-width="2" stroke-linejoin="round"/><path d="M376.8,296.4 L378.8,479.5 L391.4,479.5 L393.4,296.4 Z" fill="#F2CDB0" stroke="#1C1F26" stroke-width="2" stroke-linejoin="round"/><path d="M378.2,478.6 L377.7,485.0 L394.9,485.0 Q394.9,479.5 391.7,478.6 Z" fill="#2B2F3A" stroke="#1C1F26" stroke-width="2" stroke-linejoin="round"/><path d="M346.7,201.2 Q375.0,192.0 403.3,201.2 C403.9,234.3 393.5,238.9 393.5,257.3 Q406.6,279.1 404.2,301.0 L345.8,301.0 Q343.4,279.1 356.5,257.3 C356.5,238.9 346.1,234.3 346.7,201.2 Z" fill="#6E1A2A" stroke="#1C1F26" stroke-width="2" stroke-linejoin="round"/><path d="M364.9,195.7 L375.0,213.6 L385.1,195.7" fill="#F2CDB0" stroke="#1C1F26" stroke-width="2" stroke-linejoin="round"/><path d="M356.5,257.3 L393.5,257.3" stroke="#47101B" stroke-width="1.4" stroke-dasharray="4 3"/><path d="M356.5,257.3 Q344.3,279.1 345.8,301.0 L342.3,451.9 L407.7,451.9 L404.2,301.0 Q405.7,279.1 393.5,257.3 Z" fill="#6E1A2A" stroke="#1C1F26" stroke-width="2" stroke-linejoin="round"/><path d="M345.3,199.8 L337.8,312.5 L345.9,312.5 L354.9,199.8 Z" fill="#6E1A2A" stroke="#1C1F26" stroke-width="2" stroke-linejoin="round"/><ellipse cx="341.8" cy="318.5" rx="4.6" ry="7.8" fill="#F2CDB0" stroke="#1C1F26" stroke-width="2" stroke-linejoin="round"/><path d="M395.1,199.8 L404.1,312.5 L412.2,312.5 L404.7,199.8 Z" fill="#6E1A2A" stroke="#1C1F26" stroke-width="2" stroke-linejoin="round"/><ellipse cx="408.2" cy="318.5" rx="4.6" ry="7.8" fill="#F2CDB0" stroke="#1C1F26" stroke-width="2" stroke-linejoin="round"/><rect x="369.0" y="180.5" width="12.0" height="17.9" fill="#F2CDB0" stroke="#1C1F26" stroke-width="2" stroke-linejoin="round"/><path d="M357.2,156.1 L356.0,215.9 L399.5,215.9 L398.4,156.1 Z" fill="#4A2418" stroke="#1C1F26" stroke-width="1.6" stroke-linejoin="round"/><ellipse cx="377.8" cy="163.0" rx="17.5" ry="23.0" fill="#F2CDB0" stroke="#1C1F26" stroke-width="2" stroke-linejoin="round"/><ellipse cx="372.6" cy="164.2" rx="1.7" ry="2.3" fill="#1C1F26"/><path d="M369.4,159.3 L375.8,159.3" stroke="#1C1F26" stroke-width="2.08" stroke-linecap="round"/><ellipse cx="385.5" cy="164.2" rx="1.7" ry="2.3" fill="#1C1F26"/><path d="M382.2,159.3 L388.7,159.3" stroke="#1C1F26" stroke-width="2.08" stroke-linecap="round"/><path d="M380.5,165.8 l1.8,4.6 l-1.8,0.7" stroke="#1C1F26" stroke-width="1.2800000000000002" fill="none"/><path d="M374.8,175.7 L383.6,175.7" stroke="#1C1F26" stroke-width="1.6"/><path d="M358.3,161.8 C357.2,134.2 398.4,134.2 397.3,161.8 L396.2,157.2 Q384.2,152.7 376.8,147.4 Q366.7,156.1 359.4,159.6 Z" fill="#4A2418" stroke="#1C1F26" stroke-width="1.6" stroke-linejoin="round"/><path d="M358.3,158.4 Q355.7,172.2 357.2,199.8" fill="none" stroke="#1C1F26" stroke-width="1.4"/><path d="M397.3,158.4 Q399.8,172.2 398.4,199.8" fill="none" stroke="#1C1F26" stroke-width="1.4"/><circle cx="359.7" cy="171.7" r="2.3" fill="#E3BB38" stroke="#1C1F26" stroke-width="1"/><text x="375" y="519" font-size="16" fill="#1C1F26" text-anchor="middle" font-weight="700">3/4</text><path d="M600.4,296.4 L602.4,479.5 L615.0,479.5 L617.0,296.4 Z" fill="#F2CDB0" stroke="#1C1F26" stroke-width="2" stroke-linejoin="round"/><path d="M601.7,478.6 L601.2,485.0 L630.9,485.0 Q630.9,479.5 615.3,478.6 Z" fill="#2B2F3A" stroke="#1C1F26" stroke-width="2" stroke-linejoin="round"/><path d="M593.0,296.4 L595.0,479.5 L607.6,479.5 L609.6,296.4 Z" fill="#F2CDB0" stroke="#1C1F26" stroke-width="2" stroke-linejoin="round"/><path d="M594.4,478.6 L593.9,485.0 L623.5,485.0 Q623.5,479.5 607.9,478.6 Z" fill="#2B2F3A" stroke="#1C1F26" stroke-width="2" stroke-linejoin="round"/><path d="M591.2,197.5 Q628.0,213.6 623.4,236.6 Q615.1,257.3 617.9,301.0 L589.8,301.0 Q594.6,257.3 591.2,197.5 Z" fill="#6E1A2A" stroke="#1C1F26" stroke-width="2" stroke-linejoin="round"/><path d="M589.8,257.3 L618.8,257.3 L624.3,451.9 L584.3,451.9 Z" fill="#6E1A2A" stroke="#1C1F26" stroke-width="2" stroke-linejoin="round"/><path d="M600.2,199.8 L609.2,312.5 L617.3,312.5 L609.8,199.8 Z" fill="#6E1A2A" stroke="#1C1F26" stroke-width="2" stroke-linejoin="round"/><ellipse cx="613.3" cy="318.5" rx="4.6" ry="7.8" fill="#F2CDB0" stroke="#1C1F26" stroke-width="2" stroke-linejoin="round"/><rect x="599.0" y="180.5" width="12.0" height="17.9" fill="#F2CDB0" stroke="#1C1F26" stroke-width="2" stroke-linejoin="round"/><path d="M588.1,156.1 L587.0,215.9 L630.4,215.9 L629.3,156.1 Z" fill="#4A2418" stroke="#1C1F26" stroke-width="1.6" stroke-linejoin="round"/><path d="M591.2,163.0 C590.3,133.1 628.9,135.4 626.2,160.7 L629.3,168.8 L625.6,171.1 Q624.3,184.8 612.4,186.0 Q595.8,181.4 591.2,163.0 Z" fill="#F2CDB0" stroke="#1C1F26" stroke-width="2" stroke-linejoin="round"/><ellipse cx="605.9" cy="165.3" rx="2.4" ry="4.6" fill="#D4B49A" stroke="#1C1F26" stroke-width="2" stroke-linejoin="round"/><ellipse cx="617.0" cy="164.2" rx="1.7" ry="2.3" fill="#1C1F26"/><path d="M613.7,159.3 L620.2,159.3" stroke="#1C1F26" stroke-width="2.08" stroke-linecap="round"/><path d="M614.6,175.7 L621.1,175.7" stroke="#1C1F26" stroke-width="1.6"/><path d="M589.2,161.8 C588.1,134.2 629.3,134.2 628.2,161.8 L627.1,157.2 Q615.1,152.7 607.8,147.4 Q597.6,156.1 590.3,159.6 Z" fill="#4A2418" stroke="#1C1F26" stroke-width="1.6" stroke-linejoin="round"/><circle cx="605.9" cy="171.7" r="2.3" fill="#E3BB38" stroke="#1C1F26" stroke-width="1"/><text x="605" y="519" font-size="16" fill="#1C1F26" text-anchor="middle" font-weight="700">측면</text><path d="M816.6,296.4 L818.6,479.5 L831.2,479.5 L833.2,296.4 Z" fill="#F2CDB0" stroke="#1C1F26" stroke-width="2" stroke-linejoin="round"/><path d="M817.9,478.6 L817.4,485.0 L834.6,485.0 Q834.6,479.5 831.5,478.6 Z" fill="#2B2F3A" stroke="#1C1F26" stroke-width="2" stroke-linejoin="round"/><path d="M836.8,296.4 L838.8,479.5 L851.4,479.5 L853.4,296.4 Z" fill="#F2CDB0" stroke="#1C1F26" stroke-width="2" stroke-linejoin="round"/><path d="M838.2,478.6 L837.7,485.0 L854.9,485.0 Q854.9,479.5 851.7,478.6 Z" fill="#2B2F3A" stroke="#1C1F26" stroke-width="2" stroke-linejoin="round"/><path d="M800.5,201.2 Q835.0,192.0 869.5,201.2 C870.2,234.3 857.5,238.9 857.5,257.3 Q873.5,279.1 870.6,301.0 L799.4,301.0 Q796.5,279.1 812.5,257.3 C812.5,238.9 799.8,234.3 800.5,201.2 Z" fill="#6E1A2A" stroke="#1C1F26" stroke-width="2" stroke-linejoin="round"/><path d="M812.5,257.3 L857.5,257.3" stroke="#47101B" stroke-width="1.4" stroke-dasharray="4 3"/><path d="M812.5,257.3 Q797.6,279.1 799.4,301.0 L795.1,451.9 L874.9,451.9 L870.6,301.0 Q872.4,279.1 857.5,257.3 Z" fill="#6E1A2A" stroke="#1C1F26" stroke-width="2" stroke-linejoin="round"/><path d="M799.1,199.8 L791.5,312.5 L799.7,312.5 L808.7,199.8 Z" fill="#6E1A2A" stroke="#1C1F26" stroke-width="2" stroke-linejoin="round"/><ellipse cx="795.6" cy="318.5" rx="4.6" ry="7.8" fill="#F2CDB0" stroke="#1C1F26" stroke-width="2" stroke-linejoin="round"/><path d="M861.3,199.8 L870.3,312.5 L878.5,312.5 L870.9,199.8 Z" fill="#6E1A2A" stroke="#1C1F26" stroke-width="2" stroke-linejoin="round"/><ellipse cx="874.4" cy="318.5" rx="4.6" ry="7.8" fill="#F2CDB0" stroke="#1C1F26" stroke-width="2" stroke-linejoin="round"/><rect x="829.0" y="180.5" width="12.0" height="17.9" fill="#F2CDB0" stroke="#1C1F26" stroke-width="2" stroke-linejoin="round"/><path d="M814.8,163.0 Q812.0,213.6 820.3,222.8 L849.7,222.8 Q858.0,213.6 855.2,163.0 Z" fill="#4A2418" stroke="#1C1F26" stroke-width="1.6" stroke-linejoin="round"/><ellipse cx="835.0" cy="163.0" rx="18.4" ry="23.0" fill="#F2CDB0" stroke="#1C1F26" stroke-width="2" stroke-linejoin="round"/><ellipse cx="835" cy="161.8" rx="19.5" ry="23.7" fill="#4A2418" stroke="#1C1F26" stroke-width="1.6" stroke-linejoin="round"/><text x="835" y="519" font-size="16" fill="#1C1F26" text-anchor="middle" font-weight="700">뒷모습</text><rect x="964" y="120" width="410" height="395" rx="10" fill="#fff" stroke="#E2E5EA"/><text x="980" y="152" font-size="13" fill="#7A8290" font-weight="700">키·체형</text><text x="1050" y="152" font-size="15" fill="#1C1F26" font-weight="normal" text-anchor="start"><tspan x="1050" dy="0.0">165cm / curvy / 7.5등신</tspan></text><text x="980" y="184" font-size="13" fill="#7A8290" font-weight="700">얼굴</text><text x="1050" y="184" font-size="15" fill="#1C1F26" font-weight="normal" text-anchor="start"><tspan x="1050" dy="0.0">날카로운 계란형, 스모키 아이, 반쯤 감긴</tspan><tspan x="1050" dy="21.8">나른한 눈(크게 웃을 때 반달), 옆가르마</tspan><tspan x="1050" dy="21.8">빈티지 웨이브</tspan></text><text x="980" y="259.25" font-size="13" fill="#7A8290" font-weight="700">머리</text><text x="1050" y="259.25" font-size="15" fill="#1C1F26" font-weight="normal" text-anchor="start"><tspan x="1050" dy="0.0">long #4A2418</tspan></text><text x="980" y="291.25" font-size="13" fill="#7A8290" font-weight="700">소품</text><text x="1050" y="291.25" font-size="15" fill="#1C1F26" font-weight="normal" text-anchor="start"><tspan x="1050" dy="0.0">earring</tspan></text><text x="980" y="323.25" font-size="13" fill="#7A8290" font-weight="700">연기</text><text x="1050" y="323.25" font-size="15" fill="#1C1F26" font-weight="normal" text-anchor="start"><tspan x="1050" dy="0.0">손목으로 잔을 돌리고 생각할 땐 멈춤,</tspan><tspan x="1050" dy="21.8">고개를 젖히고 웃음, 손바닥으로 카운터를</tspan><tspan x="1050" dy="21.8">치며 박자를 셈, 카운터에 가볍게 걸터앉음</tspan></text><text x="980" y="406.5" font-size="13" fill="#7A8290" font-weight="700">의상</text><rect x="980" y="420.5" width="34" height="22" rx="4" fill="#6E1A2A" stroke="#1C1F26" stroke-width="1"/><text x="1024" y="436.5" font-size="14" fill="#1C1F26">검은 오프숄더 + 버건디 슬릿 롱스커트 + 앞치마(2화) <tspan fill="#9AA1AC" font-size="12">#6E1A2A</tspan></text><rect x="980" y="450.5" width="34" height="22" rx="4" fill="#F5F1EA" stroke="#1C1F26" stroke-width="1"/><text x="1024" y="466.5" font-size="14" fill="#1C1F26">흰 오프숄더 + 검정 슬릿 롱스커트(3화 놀이터) <tspan fill="#9AA1AC" font-size="12">#F5F1EA</tspan></text><rect x="980" y="480.5" width="34" height="22" rx="4" fill="#741C2C" stroke="#1C1F26" stroke-width="1"/><text x="1024" y="496.5" font-size="14" fill="#1C1F26">버건디 저지 랩 원피스(5화) <tspan fill="#9AA1AC" font-size="12">#741C2C</tspan></text><rect x="980" y="510.5" width="34" height="22" rx="4" fill="#5E1324" stroke="#1C1F26" stroke-width="1"/><text x="1024" y="526.5" font-size="14" fill="#1C1F26">버건디 벨벳 슬립 드레스(6화) <tspan fill="#9AA1AC" font-size="12">#5E1324</tspan></text><text x="36" y="545" font-size="20" font-weight="700" fill="#1C1F26">표정</text><rect x="42.0" y="561" width="209.3" height="230" rx="10" fill="#fff" stroke="#E2E5EA"/><svg x="42.0" y="561" width="209.3" height="190" overflow="hidden"><path d="M40.2,223.9 Q40.2,146.5 104.7,142.2 Q169.2,146.5 169.2,223.9 Z" fill="#6E1A2A" stroke="#1C1F26" stroke-width="2"/><rect x="93.5" y="112.1" width="22.4" height="30.1" fill="#F2CDB0" stroke="#1C1F26" stroke-width="2"/><path d="M66.1,69.1 L64.1,180.9 L145.3,180.9 L143.2,69.1 Z" fill="#4A2418" stroke="#1C1F26" stroke-width="1.6" stroke-linejoin="round"/><ellipse cx="104.66666666666667" cy="82" rx="34.4" ry="43.0" fill="#F2CDB0" stroke="#1C1F26" stroke-width="2"/><path d="M86.7,85.7 Q91.6,79.2 96.5,85.7" fill="none" stroke="#1C1F26" stroke-width="1.6"/><path d="M85.5,75.1 L97.6,75.1" stroke="#1C1F26" stroke-width="2.08" stroke-linecap="round"/><path d="M112.8,85.7 Q117.7,79.2 122.7,85.7" fill="none" stroke="#1C1F26" stroke-width="1.6"/><path d="M111.7,75.1 L123.8,75.1" stroke="#1C1F26" stroke-width="2.08" stroke-linecap="round"/><path d="M104.7,92.8 l-2.1,5.2" stroke="#1C1F26" stroke-width="1.2800000000000002" fill="none"/><path d="M94.3,105.7 Q104.7,113.4 115.0,105.7" fill="none" stroke="#1C1F26" stroke-width="1.6"/><path d="M68.2,79.8 C66.1,28.2 143.2,28.2 141.1,79.8 L139.1,71.2 Q106.4,62.7 92.6,52.8 Q84.0,69.1 70.3,75.5 Z" fill="#4A2418" stroke="#1C1F26" stroke-width="1.6" stroke-linejoin="round"/><path d="M68.2,73.4 Q63.4,99.2 66.1,150.8" fill="none" stroke="#1C1F26" stroke-width="1.4"/><path d="M141.1,73.4 Q145.9,99.2 143.2,150.8" fill="none" stroke="#1C1F26" stroke-width="1.4"/><circle cx="71.0" cy="98.3" r="4.3" fill="#E3BB38" stroke="#1C1F26" stroke-width="1"/></svg><text x="146.66666666666669" y="771.0" font-size="15" fill="#1C1F26" font-weight="700" text-anchor="middle"><tspan x="146.66666666666669" dy="0.0">웃음</tspan></text><rect x="263.3" y="561" width="209.3" height="230" rx="10" fill="#fff" stroke="#E2E5EA"/><svg x="263.3" y="561" width="209.3" height="190" overflow="hidden"><path d="M40.2,223.9 Q40.2,146.5 104.7,142.2 Q169.2,146.5 169.2,223.9 Z" fill="#6E1A2A" stroke="#1C1F26" stroke-width="2"/><rect x="93.5" y="112.1" width="22.4" height="30.1" fill="#F2CDB0" stroke="#1C1F26" stroke-width="2"/><path d="M66.1,69.1 L64.1,180.9 L145.3,180.9 L143.2,69.1 Z" fill="#4A2418" stroke="#1C1F26" stroke-width="1.6" stroke-linejoin="round"/><ellipse cx="104.66666666666667" cy="82" rx="34.4" ry="43.0" fill="#F2CDB0" stroke="#1C1F26" stroke-width="2"/><path d="M86.7,84.2 L96.5,84.2" stroke="#1C1F26" stroke-width="2.08"/><path d="M88.2,84.2 Q91.6,89.4 95.0,84.2" fill="#1C1F26"/><path d="M85.5,75.1 L97.6,75.1" stroke="#1C1F26" stroke-width="2.08" stroke-linecap="round"/><path d="M112.8,84.2 L122.7,84.2" stroke="#1C1F26" stroke-width="2.08"/><path d="M114.3,84.2 Q117.7,89.4 121.1,84.2" fill="#1C1F26"/><path d="M111.7,75.1 L123.8,75.1" stroke="#1C1F26" stroke-width="2.08" stroke-linecap="round"/><path d="M104.7,92.8 l-2.1,5.2" stroke="#1C1F26" stroke-width="1.2800000000000002" fill="none"/><path d="M96.4,105.7 Q104.7,108.7 114.0,104.4" fill="none" stroke="#9C3B44" stroke-width="2.4000000000000004"/><path d="M68.2,79.8 C66.1,28.2 143.2,28.2 141.1,79.8 L139.1,71.2 Q106.4,62.7 92.6,52.8 Q84.0,69.1 70.3,75.5 Z" fill="#4A2418" stroke="#1C1F26" stroke-width="1.6" stroke-linejoin="round"/><path d="M68.2,73.4 Q63.4,99.2 66.1,150.8" fill="none" stroke="#1C1F26" stroke-width="1.4"/><path d="M141.1,73.4 Q145.9,99.2 143.2,150.8" fill="none" stroke="#1C1F26" stroke-width="1.4"/><circle cx="71.0" cy="98.3" r="4.3" fill="#E3BB38" stroke="#1C1F26" stroke-width="1"/></svg><text x="368.00000000000006" y="771.0" font-size="15" fill="#1C1F26" font-weight="700" text-anchor="middle"><tspan x="368.00000000000006" dy="0.0">곁눈 미소</tspan></text><rect x="484.7" y="561" width="209.3" height="230" rx="10" fill="#fff" stroke="#E2E5EA"/><svg x="484.7" y="561" width="209.3" height="190" overflow="hidden"><path d="M40.2,223.9 Q40.2,146.5 104.7,142.2 Q169.2,146.5 169.2,223.9 Z" fill="#6E1A2A" stroke="#1C1F26" stroke-width="2"/><rect x="93.5" y="112.1" width="22.4" height="30.1" fill="#F2CDB0" stroke="#1C1F26" stroke-width="2"/><path d="M66.1,69.1 L64.1,180.9 L145.3,180.9 L143.2,69.1 Z" fill="#4A2418" stroke="#1C1F26" stroke-width="1.6" stroke-linejoin="round"/><ellipse cx="104.66666666666667" cy="82" rx="34.4" ry="43.0" fill="#F2CDB0" stroke="#1C1F26" stroke-width="2"/><circle cx="91.6" cy="84.2" r="5.7" fill="#fff" stroke="#1C1F26" stroke-width="1.6"/><circle cx="91.6" cy="84.2" r="1.7" fill="#1C1F26"/><path d="M85.5,71.3 L97.6,71.3" stroke="#1C1F26" stroke-width="2.08" stroke-linecap="round"/><circle cx="117.7" cy="84.2" r="5.7" fill="#fff" stroke="#1C1F26" stroke-width="1.6"/><circle cx="117.7" cy="84.2" r="1.7" fill="#1C1F26"/><path d="M111.7,71.3 L123.8,71.3" stroke="#1C1F26" stroke-width="2.08" stroke-linecap="round"/><path d="M104.7,92.8 l-2.1,5.2" stroke="#1C1F26" stroke-width="1.2800000000000002" fill="none"/><ellipse cx="104.7" cy="107.4" rx="4.6" ry="3.9" fill="#5A2228" stroke="#1C1F26" stroke-width="1.6"/><path d="M137.3,67.0 q-4.1,10.8 0,12.9 q4.1,-2.1 0,-12.9" fill="#BFE3F7" stroke="#1C1F26" stroke-width="1"/><path d="M68.2,79.8 C66.1,28.2 143.2,28.2 141.1,79.8 L139.1,71.2 Q106.4,62.7 92.6,52.8 Q84.0,69.1 70.3,75.5 Z" fill="#4A2418" stroke="#1C1F26" stroke-width="1.6" stroke-linejoin="round"/><path d="M68.2,73.4 Q63.4,99.2 66.1,150.8" fill="none" stroke="#1C1F26" stroke-width="1.4"/><path d="M141.1,73.4 Q145.9,99.2 143.2,150.8" fill="none" stroke="#1C1F26" stroke-width="1.4"/><circle cx="71.0" cy="98.3" r="4.3" fill="#E3BB38" stroke="#1C1F26" stroke-width="1"/></svg><text x="589.3333333333334" y="771.0" font-size="15" fill="#1C1F26" font-weight="700" text-anchor="middle"><tspan x="589.3333333333334" dy="0.0">당황</tspan></text><rect x="706.0" y="561" width="209.3" height="230" rx="10" fill="#fff" stroke="#E2E5EA"/><svg x="706.0" y="561" width="209.3" height="190" overflow="hidden"><path d="M40.2,223.9 Q40.2,146.5 104.7,142.2 Q169.2,146.5 169.2,223.9 Z" fill="#6E1A2A" stroke="#1C1F26" stroke-width="2"/><rect x="93.5" y="112.1" width="22.4" height="30.1" fill="#F2CDB0" stroke="#1C1F26" stroke-width="2"/><path d="M66.1,69.1 L64.1,180.9 L145.3,180.9 L143.2,69.1 Z" fill="#4A2418" stroke="#1C1F26" stroke-width="1.6" stroke-linejoin="round"/><ellipse cx="104.66666666666667" cy="82" rx="34.4" ry="43.0" fill="#F2CDB0" stroke="#1C1F26" stroke-width="2"/><ellipse cx="91.6" cy="84.2" rx="3.2" ry="4.4" fill="#1C1F26"/><path d="M85.5,73.5 L97.6,80.4" stroke="#1C1F26" stroke-width="2.08" stroke-linecap="round"/><ellipse cx="117.7" cy="84.2" rx="3.2" ry="4.4" fill="#1C1F26"/><path d="M111.7,80.4 L123.8,73.5" stroke="#1C1F26" stroke-width="2.08" stroke-linecap="round"/><path d="M104.7,92.8 l-2.1,5.2" stroke="#1C1F26" stroke-width="1.2800000000000002" fill="none"/><path d="M94.3,108.2 Q104.7,101.4 115.0,108.2 Z" fill="#fff" stroke="#1C1F26" stroke-width="1.6"/><path d="M68.2,79.8 C66.1,28.2 143.2,28.2 141.1,79.8 L139.1,71.2 Q106.4,62.7 92.6,52.8 Q84.0,69.1 70.3,75.5 Z" fill="#4A2418" stroke="#1C1F26" stroke-width="1.6" stroke-linejoin="round"/><path d="M68.2,73.4 Q63.4,99.2 66.1,150.8" fill="none" stroke="#1C1F26" stroke-width="1.4"/><path d="M141.1,73.4 Q145.9,99.2 143.2,150.8" fill="none" stroke="#1C1F26" stroke-width="1.4"/><circle cx="71.0" cy="98.3" r="4.3" fill="#E3BB38" stroke="#1C1F26" stroke-width="1"/></svg><text x="810.6666666666666" y="771.0" font-size="15" fill="#1C1F26" font-weight="700" text-anchor="middle"><tspan x="810.6666666666666" dy="0.0">분노</tspan></text><rect x="927.3" y="561" width="209.3" height="230" rx="10" fill="#fff" stroke="#E2E5EA"/><svg x="927.3" y="561" width="209.3" height="190" overflow="hidden"><path d="M40.2,223.9 Q40.2,146.5 104.7,142.2 Q169.2,146.5 169.2,223.9 Z" fill="#6E1A2A" stroke="#1C1F26" stroke-width="2"/><rect x="93.5" y="112.1" width="22.4" height="30.1" fill="#F2CDB0" stroke="#1C1F26" stroke-width="2"/><path d="M66.1,69.1 L64.1,180.9 L145.3,180.9 L143.2,69.1 Z" fill="#4A2418" stroke="#1C1F26" stroke-width="1.6" stroke-linejoin="round"/><ellipse cx="104.66666666666667" cy="82" rx="34.4" ry="43.0" fill="#F2CDB0" stroke="#1C1F26" stroke-width="2"/><ellipse cx="91.6" cy="84.9" rx="3.0" ry="3.8" fill="#1C1F26"/><path d="M91.6,89.8 q-1.5,6.1 0,8.3 q1.5,-2.3 0,-8.3" fill="#8EC8F0" stroke="#1C1F26" stroke-width="0.8"/><path d="M85.5,77.0 L97.6,72.8" stroke="#1C1F26" stroke-width="2.08" stroke-linecap="round"/><ellipse cx="117.7" cy="84.9" rx="3.0" ry="3.8" fill="#1C1F26"/><path d="M111.7,72.8 L123.8,77.0" stroke="#1C1F26" stroke-width="2.08" stroke-linecap="round"/><path d="M104.7,92.8 l-2.1,5.2" stroke="#1C1F26" stroke-width="1.2800000000000002" fill="none"/><path d="M94.3,108.2 Q104.7,102.2 115.0,108.2" fill="none" stroke="#1C1F26" stroke-width="1.6"/><path d="M68.2,79.8 C66.1,28.2 143.2,28.2 141.1,79.8 L139.1,71.2 Q106.4,62.7 92.6,52.8 Q84.0,69.1 70.3,75.5 Z" fill="#4A2418" stroke="#1C1F26" stroke-width="1.6" stroke-linejoin="round"/><path d="M68.2,73.4 Q63.4,99.2 66.1,150.8" fill="none" stroke="#1C1F26" stroke-width="1.4"/><path d="M141.1,73.4 Q145.9,99.2 143.2,150.8" fill="none" stroke="#1C1F26" stroke-width="1.4"/><circle cx="71.0" cy="98.3" r="4.3" fill="#E3BB38" stroke="#1C1F26" stroke-width="1"/></svg><text x="1032.0" y="771.0" font-size="15" fill="#1C1F26" font-weight="700" text-anchor="middle"><tspan x="1032.0" dy="0.0">슬픔</tspan></text><rect x="1148.7" y="561" width="209.3" height="230" rx="10" fill="#fff" stroke="#E2E5EA"/><svg x="1148.7" y="561" width="209.3" height="190" overflow="hidden"><path d="M40.2,223.9 Q40.2,146.5 104.7,142.2 Q169.2,146.5 169.2,223.9 Z" fill="#6E1A2A" stroke="#1C1F26" stroke-width="2"/><rect x="93.5" y="112.1" width="22.4" height="30.1" fill="#F2CDB0" stroke="#1C1F26" stroke-width="2"/><path d="M66.1,69.1 L64.1,180.9 L145.3,180.9 L143.2,69.1 Z" fill="#4A2418" stroke="#1C1F26" stroke-width="1.6" stroke-linejoin="round"/><ellipse cx="104.66666666666667" cy="82" rx="34.4" ry="43.0" fill="#F2CDB0" stroke="#1C1F26" stroke-width="2"/><ellipse cx="91.6" cy="84.2" rx="3.2" ry="4.4" fill="#1C1F26"/><path d="M85.5,74.3 L97.6,77.7" stroke="#1C1F26" stroke-width="2.08" stroke-linecap="round"/><ellipse cx="117.7" cy="84.2" rx="3.2" ry="4.4" fill="#1C1F26"/><path d="M111.7,77.7 L123.8,74.3" stroke="#1C1F26" stroke-width="2.08" stroke-linecap="round"/><path d="M104.7,92.8 l-2.1,5.2" stroke="#1C1F26" stroke-width="1.2800000000000002" fill="none"/><path d="M96.4,105.7 L112.9,105.7" stroke="#1C1F26" stroke-width="1.6"/><path d="M68.2,79.8 C66.1,28.2 143.2,28.2 141.1,79.8 L139.1,71.2 Q106.4,62.7 92.6,52.8 Q84.0,69.1 70.3,75.5 Z" fill="#4A2418" stroke="#1C1F26" stroke-width="1.6" stroke-linejoin="round"/><path d="M68.2,73.4 Q63.4,99.2 66.1,150.8" fill="none" stroke="#1C1F26" stroke-width="1.4"/><path d="M141.1,73.4 Q145.9,99.2 143.2,150.8" fill="none" stroke="#1C1F26" stroke-width="1.4"/><circle cx="71.0" cy="98.3" r="4.3" fill="#E3BB38" stroke="#1C1F26" stroke-width="1"/></svg><text x="1253.3333333333335" y="771.0" font-size="15" fill="#1C1F26" font-weight="700" text-anchor="middle"><tspan x="1253.3333333333335" dy="0.0">단호</tspan></text></svg>