<svg xmlns="http://www.w3.org/2000/svg" viewBox="0 0 400 440" width="400" height="440" role="img" aria-label="2-013 옷을 입은 상태."><rect width="400" height="440" fill="#1E2638"/><path d="M3.2 440.0 Q12.0 303.6 100.0 294.8 Q188.0 303.6 196.8 440.0Z" fill="#B9C3CF" stroke="#1C1F26" stroke-width="2"/><circle cx="100.0" cy="246.4" r="44.0" fill="#F6D5BB" stroke="#1C1F26" stroke-width="3.1"/><path d="M56.0 244.2 A44.0 44.0 0 0 1 144.0 244.2 Q108.8 209.0 56.0 244.2Z" fill="#1C1F26" stroke="#1C1F26" stroke-width="3.1"/><circle cx="84.6" cy="248.6" r="4.0" fill="#1C1F26"/><circle cx="115.4" cy="248.6" r="4.0" fill="#1C1F26"/><circle cx="84.6" cy="248.6" r="12.3" fill="none" stroke="#1C1F26" stroke-width="3.1"/><circle cx="115.4" cy="248.6" r="12.3" fill="none" stroke="#1C1F26" stroke-width="3.1"/><path d="M91.2 268.4 h17.6" stroke="#1C1F26" stroke-width="3.1"/><path d="M203.2 440.0 Q212.0 303.6 300.0 294.8 Q388.0 303.6 396.8 440.0Z" fill="#B9C3CF" stroke="#1C1F26" stroke-width="2"/><ellipse cx="341.8" cy="237.6" rx="14.1" ry="26.4" fill="#3B2A22" stroke="#1C1F26" stroke-width="3.1"/><circle cx="300.0" cy="246.4" r="44.0" fill="#F6D5BB" stroke="#1C1F26" stroke-width="3.1"/><path d="M256.0 244.2 A44.0 44.0 0 0 1 344.0 244.2 Q308.8 209.0 256.0 244.2Z" fill="#3B2A22" stroke="#1C1F26" stroke-width="3.1"/><path d="M273.6 211.2 L280.2 187.0 L319.8 187.0 L326.4 211.2Z" fill="#fff" stroke="#1C1F26" stroke-width="3.1"/><circle cx="284.6" cy="248.6" r="4.0" fill="#1C1F26"/><circle cx="315.4" cy="248.6" r="4.0" fill="#1C1F26"/><path d="M291.2 268.4 h17.6" stroke="#1C1F26" stroke-width="3.1"/><rect x="14" y="396" width="250" height="32" fill="#0F1626" stroke="#E8EAEE" stroke-width="1.5"/><rect x="0" y="0" width="134" height="22" fill="#000" fill-opacity=".55"/><text x="6" y="16" font-size="13" fill="#fff" font-family="sans-serif">2-013 · MS · 측면</text></svg>