<svg xmlns="http://www.w3.org/2000/svg" viewBox="0 0 400 360" width="400" height="360" role="img" aria-label="2-055 서희의 옆얼굴."><rect width="400" height="360" fill="#1E2638"/><path d="M65.4 360.0 Q77.6 243.7 200.0 231.5 Q322.4 243.7 334.6 360.0Z" fill="#B9C3CF" stroke="#1C1F26" stroke-width="2"/><ellipse cx="258.1" cy="151.9" rx="19.6" ry="36.7" fill="#3B2A22" stroke="#1C1F26" stroke-width="4.4"/><circle cx="200.0" cy="164.2" r="61.2" fill="#F6D5BB" stroke="#1C1F26" stroke-width="4.4"/><path d="M138.8 161.1 A61.2 61.2 0 0 1 261.2 161.1 Q212.2 112.1 138.8 161.1Z" fill="#3B2A22" stroke="#1C1F26" stroke-width="4.4"/><path d="M163.3 115.2 L172.5 81.5 L227.5 81.5 L236.7 115.2Z" fill="#fff" stroke="#1C1F26" stroke-width="4.4"/><circle cx="178.6" cy="167.2" r="5.5" fill="#1C1F26"/><circle cx="221.4" cy="167.2" r="5.5" fill="#1C1F26"/><path d="M187.8 194.8 h24.5" stroke="#1C1F26" stroke-width="4.4"/><rect x="16" y="14" width="178" height="38" rx="18" fill="#fff" stroke="#1C1F26" stroke-width="2"/><text x="105" y="38" font-size="13" fill="#1C1F26" text-anchor="middle" font-family="sans-serif">서희</text><rect x="0" y="0" width="134" height="22" fill="#000" fill-opacity=".55"/><text x="6" y="16" font-size="13" fill="#fff" font-family="sans-serif">2-055 · BS · 측면</text></svg>