<svg xmlns="http://www.w3.org/2000/svg" viewBox="0 0 400 400" width="400" height="400" role="img" aria-label="4-009 접수 카운터 앞."><rect width="400" height="400" fill="#ECEEF1"/><path d="M103.2 400.0 Q112.0 263.6 200.0 254.8 Q288.0 263.6 296.8 400.0Z" fill="#B9C3CF" stroke="#1C1F26" stroke-width="2"/><circle cx="200.0" cy="206.4" r="44.0" fill="#F6D5BB" stroke="#1C1F26" stroke-width="3.1"/><polygon points="156.0,202.0 147.2,180.0 169.2,171.2 173.6,149.2 195.6,162.4 213.2,147.0 222.0,164.6 250.6,162.4 241.8,184.4 244.0,202.0 226.4,180.0 173.6,180.0" fill="#2B2B2B" stroke="#1C1F26" stroke-width="3.1"/><circle cx="184.6" cy="208.6" r="4.0" fill="#1C1F26"/><circle cx="215.4" cy="208.6" r="4.0" fill="#1C1F26"/><path d="M191.2 228.4 h17.6" stroke="#1C1F26" stroke-width="3.1"/><rect x="14" y="356" width="250" height="32" fill="#FFF4CF" stroke="#1C1F26" stroke-width="1.5"/><rect x="0" y="0" width="150" height="22" fill="#000" fill-opacity=".55"/><text x="6" y="16" font-size="13" fill="#fff" font-family="sans-serif">4-009 · MS · 아이레벨</text></svg>