<svg xmlns="http://www.w3.org/2000/svg" viewBox="0 0 400 620" width="400" height="620" role="img" aria-label="8-030 연회장 통유리 너머 노을 진 해운대 바다."><rect width="400" height="620" fill="#ECEEF1"/><path d="M0 508 H400" stroke="#1C1F26" stroke-opacity=".35" stroke-width="2"/><path d="M162.4 483.6 L160.3 420.8 Q177.0 416.6 193.7 420.8 L191.6 483.6Z" fill="#0D1018" stroke="#1C1F26" stroke-width="1.6"/><circle cx="177.0" cy="407.2" r="10.4" fill="#0D1018" stroke="#1C1F26" stroke-width="1.5"/><path d="M166.6 406.7 A10.4 10.4 0 0 1 187.4 406.7 Q179.1 398.4 166.6 406.7Z" fill="#0D1018" stroke="#1C1F26" stroke-width="1.5"/><circle cx="173.4" cy="407.2" r="1.2" fill="#E8EAEE"/><circle cx="180.6" cy="407.2" r="1.2" fill="#E8EAEE"/><path d="M208.4 483.6 L206.3 420.8 Q223.0 416.6 239.7 420.8 L237.6 483.6Z" fill="#0D1018" stroke="#1C1F26" stroke-width="1.6"/><circle cx="223.0" cy="407.2" r="10.4" fill="#0D1018" stroke="#1C1F26" stroke-width="1.5"/><path d="M212.6 406.7 A10.4 10.4 0 0 1 233.4 406.7 Q225.1 398.4 212.6 406.7Z" fill="#0D1018" stroke="#1C1F26" stroke-width="1.5"/><rect x="14" y="576" width="250" height="32" fill="#FFF4CF" stroke="#1C1F26" stroke-width="1.5"/><rect x="0" y="0" width="158" height="22" fill="#000" fill-opacity=".55"/><text x="6" y="16" font-size="13" fill="#fff" font-family="sans-serif">8-030 · ELS · 아이레벨</text></svg>